<?xml version="1.0" encoding="UTF-8" standalone="no"?>
<svg
   xmlns:dc="http://purl.org/dc/elements/1.1/"
   xmlns:cc="http://creativecommons.org/ns#"
   xmlns:rdf="http://www.w3.org/1999/02/22-rdf-syntax-ns#"
   xmlns:svg="http://www.w3.org/2000/svg"
   xmlns="http://www.w3.org/2000/svg"
   xmlns:sodipodi="http://sodipodi.sourceforge.net/DTD/sodipodi-0.dtd"
   xmlns:inkscape="http://www.inkscape.org/namespaces/inkscape"
   width="80mm"
   height="40mm"
   viewBox="0 0 80 40"
   version="1.1"
   id="svg8"
   inkscape:version="1.0 (4035a4fb49, 2020-05-01)"
   sodipodi:docname="battery.svg">
  <defs
     id="defs2" />
  <sodipodi:namedview
     id="base"
     pagecolor="#ffffff"
     bordercolor="#666666"
     borderopacity="1.0"
     inkscape:pageopacity="0.0"
     inkscape:pageshadow="2"
     inkscape:zoom="3.959798"
     inkscape:cx="201.18049"
     inkscape:cy="106.68097"
     inkscape:document-units="mm"
     inkscape:current-layer="g927"
     inkscape:document-rotation="0"
     showgrid="false"
     inkscape:window-width="1920"
     inkscape:window-height="1017"
     inkscape:window-x="1432"
     inkscape:window-y="-8"
     inkscape:window-maximized="1" />
  <metadata
     id="metadata5">
    <rdf:RDF>
      <cc:Work
         rdf:about="">
        <dc:format>image/example/svg+xml</dc:format>
        <dc:type
           rdf:resource="http://purl.org/dc/dcmitype/StillImage" />
        <dc:title />
      </cc:Work>
    </rdf:RDF>
  </metadata>
  <g
     inkscape:label="Layer 1"
     inkscape:groupmode="layer"
     id="layer1">
    <g
       id="g939"
       transform="rotate(-90,20.000071,20.000071)">
      <rect
         ry="5"
         y="0"
         x="12.5"
         height="12"
         width="16"
         id="rect835"
         style="fill:#e6e6e6;fill-rule:evenodd;stroke-width:0.264999" />
      <rect
         ry="7.4000001"
         y="6"
         x="-1.110223e-16"
         height="74"
         width="40"
         id="rect833"
         style="fill:#333333;fill-opacity:1;fill-rule:evenodd;stroke-width:0.319124" />
      <path
         transform="scale(0.26458333)"
         d="M 27.96875,22.677734 C 12.474198,22.677734 0,35.151933 0,50.646484 V 98.267578 H 151.18164 V 50.646484 c 0,-15.494551 -12.4742,-27.96875 -27.96875,-27.96875 z"
         style="fill:#d38d5f;fill-opacity:1;fill-rule:evenodd;stroke-width:1.20614"
         id="rect833-9" />
      <g
         transform="matrix(0.72209201,0,0,0.72209201,11.472876,33.098442)"
         id="g925"
         style="fill:#ffffff">
        <path
           d="M 0,0 H 24 V 24 H 0 Z"
           fill="none"
           id="path911" />
        <path
           style="fill:#ffcc00;stroke-width:1.10789"
           d="M 6.2694559,2.6334012 V 14.820214 h 3.323676 v 9.971028 L 17.348377,11.496537 h -4.431569 l 4.431569,-8.8631358 z"
           id="path913" />
      </g>
      <g
         transform="matrix(0,0.1984375,-0.1984375,0,13.566362,19.031994)"
         id="g895"
         style="fill:#000000">
        <path
           d="M 0,0 H 24 V 24 H 0 Z"
           fill="none"
           id="path881" />
        <path
           style="stroke-width:3.59955"
           d="M 9.9175105,-28.822648 H -11.679791 v 21.5973013 h -7.1991 V -28.822648 h -21.5973 v -7.1991 h 21.5973 v -21.5973 h 7.1991 v 21.5973 H 9.9175105 Z"
           id="path883" />
      </g>
      <g
         transform="matrix(0.1984375,0,0,0.1984375,20.237642,70)"
         id="g927"
         style="fill:#ffffff">
        <path
           d="M 0,0 H 24 V 24 H 0 Z"
           fill="none"
           id="path913-2" />
        <path
           style="stroke-width:3.59955"
           d="M 24,7.1991 H -26.393701 V 0 H 24 Z"
           id="path915" />
      </g>
    </g>
  </g>
</svg>
